<mxfile host="app.diagrams.net" modified="2021-06-09T11:36:06.068Z" agent="5.0 (Windows NT 6.1; Win64; x64) AppleWebKit/537.36 (KHTML, like Gecko) Chrome/91.0.4472.77 Safari/537.36" etag="HUnGjCveLcRj4EYlysrk" version="14.7.6" type="github">
  <diagram id="wFE0QG_FPsp0jaGvCLVb" name="Page-1">
    <mxGraphModel dx="1422" dy="762" grid="0" gridSize="10" guides="1" tooltips="1" connect="1" arrows="1" fold="1" page="0" pageScale="1" pageWidth="850" pageHeight="1100" background="none" math="0" shadow="0">
      <root>
        <mxCell id="0" />
        <mxCell id="1" parent="0" />
        <mxCell id="RACrBsPruQbAjq-KJwp2-1" value="" style="rounded=0;whiteSpace=wrap;html=1;glass=0;labelBackgroundColor=none;sketch=0;fontSize=14;fontColor=#000000;strokeColor=#000000;fillColor=#ffffff;dashed=1;" vertex="1" parent="1">
          <mxGeometry x="120" y="70" width="630" height="200" as="geometry" />
        </mxCell>
        <object label="mysql汇总指标" placeholders="1" id="RACrBsPruQbAjq-KJwp2-3">
          <mxCell style="whiteSpace=wrap;html=1;strokeWidth=2;fontStyle=1;spacingTop=0;arcSize=9;points=[];fontFamily=Permanent Marker;hachureGap=8;fillWeight=1;shadow=0;sketch=1;rounded=1;fillStyle=hachure;fillColor=#dae8fc;fontSize=15;labelBackgroundColor=none;glass=0;" vertex="1" parent="1">
            <mxGeometry x="250" y="80" width="140" height="80" as="geometry" />
          </mxCell>
        </object>
        <object label="GreenPlum&lt;br style=&quot;font-size: 15px;&quot;&gt;多维度关联" placeholders="1" id="RACrBsPruQbAjq-KJwp2-4">
          <mxCell style="whiteSpace=wrap;html=1;strokeWidth=2;fontStyle=1;spacingTop=0;arcSize=9;points=[];fontFamily=Permanent Marker;hachureGap=8;fillWeight=1;shadow=0;sketch=1;rounded=1;fillStyle=hachure;fillColor=#dae8fc;labelBackgroundColor=none;glass=0;fontSize=15;" vertex="1" parent="1">
            <mxGeometry x="480" y="80" width="140" height="80" as="geometry" />
          </mxCell>
        </object>
        <object label="Hbase汇总指标&lt;br style=&quot;font-size: 15px;&quot;&gt;高并发场景" placeholders="1" id="RACrBsPruQbAjq-KJwp2-5">
          <mxCell style="whiteSpace=wrap;html=1;strokeWidth=2;fontStyle=1;spacingTop=0;arcSize=9;points=[];fontFamily=Permanent Marker;hachureGap=8;fillWeight=1;shadow=0;sketch=1;rounded=1;fillStyle=hachure;fillColor=#dae8fc;labelBackgroundColor=none;glass=0;fontSize=15;" vertex="1" parent="1">
            <mxGeometry x="250" y="180" width="140" height="80" as="geometry" />
          </mxCell>
        </object>
        <object label="Redis汇总计算" placeholders="1" id="RACrBsPruQbAjq-KJwp2-6">
          <mxCell style="whiteSpace=wrap;html=1;strokeWidth=2;fontStyle=1;spacingTop=0;arcSize=9;points=[];fontFamily=Permanent Marker;hachureGap=8;fillWeight=1;shadow=0;sketch=1;rounded=1;fillStyle=hachure;fillColor=#dae8fc;labelBackgroundColor=none;glass=0;fontSize=15;" vertex="1" parent="1">
            <mxGeometry x="480" y="180" width="140" height="80" as="geometry" />
          </mxCell>
        </object>
        <mxCell id="RACrBsPruQbAjq-KJwp2-7" value="DWS" style="rounded=0;whiteSpace=wrap;html=1;glass=0;labelBackgroundColor=none;sketch=0;fontSize=14;fontColor=#000000;strokeColor=#000000;fillColor=#ffffff;fontStyle=1;dashed=1;" vertex="1" parent="1">
          <mxGeometry x="30" y="130" width="80" height="50" as="geometry" />
        </mxCell>
        <mxCell id="RACrBsPruQbAjq-KJwp2-8" value="" style="rounded=0;whiteSpace=wrap;html=1;glass=0;labelBackgroundColor=none;sketch=0;fontSize=15;fontColor=#000000;strokeColor=#000000;fillColor=#ffffff;dashed=1;" vertex="1" parent="1">
          <mxGeometry x="120" y="290" width="630" height="130" as="geometry" />
        </mxCell>
        <object label="Kafka事实数据" placeholders="1" id="RACrBsPruQbAjq-KJwp2-9">
          <mxCell style="whiteSpace=wrap;html=1;strokeWidth=2;fontStyle=1;spacingTop=0;arcSize=9;points=[];fontFamily=Permanent Marker;hachureGap=8;fillWeight=1;shadow=0;sketch=1;rounded=1;fillStyle=hachure;fillColor=#dae8fc;fontSize=15;labelBackgroundColor=none;glass=0;" vertex="1" parent="1">
            <mxGeometry x="250" y="300" width="140" height="80" as="geometry" />
          </mxCell>
        </object>
        <object label="Redis历史数据" placeholders="1" id="RACrBsPruQbAjq-KJwp2-10">
          <mxCell style="whiteSpace=wrap;html=1;strokeWidth=2;fontStyle=1;spacingTop=0;arcSize=9;points=[];fontFamily=Permanent Marker;hachureGap=8;fillWeight=1;shadow=0;sketch=1;rounded=1;fillStyle=hachure;fillColor=#dae8fc;labelBackgroundColor=none;glass=0;fontSize=15;" vertex="1" parent="1">
            <mxGeometry x="480" y="300" width="140" height="80" as="geometry" />
          </mxCell>
        </object>
        <mxCell id="RACrBsPruQbAjq-KJwp2-13" value="DWD" style="rounded=0;whiteSpace=wrap;html=1;glass=0;labelBackgroundColor=none;sketch=0;fontSize=14;fontColor=#000000;strokeColor=#000000;fillColor=#ffffff;fontStyle=1;dashed=1;" vertex="1" parent="1">
          <mxGeometry x="30" y="334" width="80" height="50" as="geometry" />
        </mxCell>
        <mxCell id="RACrBsPruQbAjq-KJwp2-14" value="" style="rounded=0;whiteSpace=wrap;html=1;glass=0;labelBackgroundColor=none;sketch=0;fontSize=15;fontColor=#000000;strokeColor=#000000;fillColor=#ffffff;dashed=1;" vertex="1" parent="1">
          <mxGeometry x="120" y="440" width="640" height="100" as="geometry" />
        </mxCell>
        <mxCell id="RACrBsPruQbAjq-KJwp2-15" value="" style="rounded=0;whiteSpace=wrap;html=1;glass=0;labelBackgroundColor=none;sketch=0;fontSize=15;fontColor=#000000;strokeColor=#000000;fillColor=#ffffff;dashed=1;" vertex="1" parent="1">
          <mxGeometry x="120" y="570" width="640" height="130" as="geometry" />
        </mxCell>
        <object label="Kafka事实数据" placeholders="1" id="RACrBsPruQbAjq-KJwp2-16">
          <mxCell style="whiteSpace=wrap;html=1;strokeWidth=2;fontStyle=1;spacingTop=0;arcSize=9;points=[];fontFamily=Permanent Marker;hachureGap=8;fillWeight=1;shadow=0;sketch=1;rounded=1;fillStyle=hachure;fillColor=#dae8fc;fontSize=15;labelBackgroundColor=none;glass=0;" vertex="1" parent="1">
            <mxGeometry x="250" y="589" width="140" height="80" as="geometry" />
          </mxCell>
        </object>
        <object label="DIM维度表" placeholders="1" id="RACrBsPruQbAjq-KJwp2-17">
          <mxCell style="whiteSpace=wrap;html=1;strokeWidth=2;fontStyle=1;spacingTop=0;arcSize=9;points=[];fontFamily=Permanent Marker;hachureGap=8;fillWeight=1;shadow=0;sketch=1;rounded=1;fillStyle=hachure;fillColor=#dae8fc;labelBackgroundColor=none;glass=0;fontSize=15;" vertex="1" parent="1">
            <mxGeometry x="480" y="589" width="140" height="80" as="geometry" />
          </mxCell>
        </object>
        <mxCell id="RACrBsPruQbAjq-KJwp2-18" value="ODS" style="rounded=0;whiteSpace=wrap;html=1;glass=0;labelBackgroundColor=none;sketch=0;fontSize=14;fontColor=#000000;strokeColor=#000000;fillColor=#ffffff;fontStyle=1;dashed=1;" vertex="1" parent="1">
          <mxGeometry x="30" y="604" width="80" height="50" as="geometry" />
        </mxCell>
        <object label="Flink" placeholders="1" id="RACrBsPruQbAjq-KJwp2-19">
          <mxCell style="whiteSpace=wrap;html=1;strokeWidth=2;fontStyle=1;spacingTop=0;arcSize=9;points=[];fontFamily=Permanent Marker;hachureGap=8;fillWeight=1;shadow=0;sketch=1;rounded=1;fillStyle=hachure;fillColor=#dae8fc;labelBackgroundColor=none;glass=0;fontSize=15;" vertex="1" parent="1">
            <mxGeometry x="365" y="450" width="140" height="80" as="geometry" />
          </mxCell>
        </object>
      </root>
    </mxGraphModel>
  </diagram>
</mxfile>
